<svg width="48" height="48" viewBox="0 0 48 48" fill="none" xmlns="http://www.w3.org/2000/svg">
<path d="M36.288 26.134V21.866L33.1 24L36.288 26.134ZM38.84 28.522C38.8397 28.5775 38.8357 28.633 38.828 28.688L38.818 28.744L38.796 28.85L38.776 28.912C38.7664 28.9439 38.7551 28.9753 38.742 29.006L38.714 29.066C38.7009 29.0951 38.6869 29.1238 38.672 29.152L38.634 29.212C38.5883 29.2845 38.5347 29.3516 38.474 29.412L38.422 29.462C38.3988 29.4829 38.3748 29.5029 38.35 29.522L38.292 29.566L38.272 29.582L24.708 38.626C24.4984 38.7661 24.2521 38.8408 24 38.8408C23.7479 38.8408 23.5016 38.7661 23.292 38.626L9.728 29.58L9.708 29.564C9.66231 29.5324 9.61887 29.4976 9.578 29.46L9.526 29.41L9.462 29.342L9.42 29.286C9.36741 29.2178 9.32248 29.144 9.286 29.066L9.258 29.004C9.24545 28.9731 9.23411 28.9418 9.224 28.91L9.204 28.85C9.196 28.814 9.188 28.778 9.184 28.742L9.172 28.686C9.16433 28.631 9.16033 28.5755 9.16 28.52V19.478C9.16002 19.4225 9.16403 19.367 9.172 19.312L9.182 19.258L9.204 19.15L9.224 19.09C9.27142 18.9296 9.35333 18.7815 9.464 18.656L9.526 18.588L9.578 18.538C9.61895 18.5005 9.66239 18.4657 9.708 18.434L9.728 18.418L23.292 9.376C23.5016 9.23618 23.748 9.16156 24 9.16156C24.252 9.16156 24.4984 9.23618 24.708 9.376L38.272 18.418L38.292 18.434L38.352 18.478L38.422 18.538C38.442 18.554 38.456 18.57 38.474 18.588C38.535 18.6481 38.5887 18.7153 38.634 18.788L38.672 18.848C38.6871 18.8761 38.7011 18.9048 38.714 18.934L38.742 18.994C38.756 19.026 38.766 19.058 38.776 19.088L38.796 19.15C38.804 19.186 38.812 19.222 38.816 19.258L38.828 19.312C38.8357 19.367 38.8397 19.4225 38.84 19.478V28.522ZM24 0C10.746 0 0 10.744 0 24C0 37.254 10.746 48 24 48C37.256 48 48 37.256 48 24C48 10.746 37.256 0 24 0ZM24 20.984L19.49 24L24 27.02L28.51 24L24 20.984ZM25.276 29.232V35.182L35.268 28.522L30.804 25.536L25.276 29.232ZM12.732 28.52L22.724 35.18V29.232L17.196 25.534L12.732 28.52ZM35.268 19.48L25.276 12.82V18.768L30.804 22.468L35.268 19.48ZM22.724 18.768V12.82L12.732 19.48L17.196 22.466L22.724 18.768ZM11.712 21.866V26.134L14.9 24L11.712 21.866Z" fill="#1B1C21"/>
</svg>
