<svg width="32" height="32" viewBox="0 0 32 32" fill="none" xmlns="http://www.w3.org/2000/svg">
<circle cx="16" cy="16" r="16" fill="#E1E3F0"/>
<g clip-path="url(#clip0)">
<path d="M10.3557 11.0838C11.305 9.50875 12.6944 8.4587 14.2112 7.90715C14.4816 7.80639 14.768 8.02913 14.7203 8.31021C14.296 10.6437 14.9855 13.1362 16.7886 14.9393C18.5917 16.7425 21.0843 17.4319 23.4177 17.0076C23.7041 16.9546 23.9268 17.241 23.8261 17.5114C23.4654 18.5085 22.8874 19.4471 22.0919 20.2426C18.8834 23.4511 13.4846 23.1435 10.7057 19.3252C8.9503 16.9228 8.81242 13.6241 10.3557 11.0838Z" fill="#1B1C21"/>
</g>
<defs>
<clipPath id="clip0">
<rect width="18" height="18" fill="white" transform="translate(3 16) rotate(-45)"/>
</clipPath>
</defs>
</svg>
