<svg width="32" height="32" viewBox="0 0 32 32" fill="none" xmlns="http://www.w3.org/2000/svg">
<circle cx="16" cy="16" r="16" fill="#555869"/>
<path d="M12.2462 16C12.2462 18.0708 13.9307 19.7552 16.0015 19.7552C18.0722 19.7552 19.7568 18.0708 19.7568 16C19.7568 13.9293 18.0722 12.2448 16.0015 12.2448C13.9307 12.2448 12.2462 13.9293 12.2462 16ZM15.25 21.25H16.75V23.5H15.25V21.25ZM15.25 8.5H16.75V10.75H15.25V8.5ZM8.5 15.25H10.75V16.75H8.5V15.25ZM21.25 15.25H23.5V16.75H21.25V15.25Z" fill="#EDEFF7"/>
<path d="M11.2277 21.8335L10.1672 20.773L11.758 19.1823L12.8185 20.2428L11.2277 21.8335Z" fill="#EDEFF7"/>
<path d="M19.1814 11.758L20.7729 10.1665L21.8334 11.227L20.2419 12.8185L19.1814 11.758Z" fill="#EDEFF7"/>
<path d="M11.758 12.8192L10.1672 11.2277L11.2285 10.1672L12.8185 11.7587L11.758 12.8192Z" fill="#EDEFF7"/>
<path d="M21.8334 20.773L20.7729 21.8335L19.1814 20.242L20.2419 19.1815L21.8334 20.773Z" fill="#EDEFF7"/>
</svg>
